<?xml version="1.0" encoding="utf-8" ?>
<svg baseProfile="full" height="500" version="1.1" width="500" xmlns="http://www.w3.org/2000/svg" xmlns:ev="http://www.w3.org/2001/xml-events" xmlns:xlink="http://www.w3.org/1999/xlink"><defs /><path d="M 185.00,402.00 L 186.00,401.00 L 187.00,401.00 L 188.00,401.00 L 189.00,401.00 L 190.00,401.00 L 191.00,401.00 L 191.00,401.00 L 192.00,400.00 L 193.00,400.00 L 194.00,400.00 L 194.00,400.00 L 195.00,399.00 L 196.00,399.00 L 197.00,399.00 L 197.00,399.00 L 198.00,398.00 L 199.00,398.00 L 200.00,398.00 L 200.00,398.00 L 201.00,397.00 L 202.00,397.00 L 202.00,397.00 L 203.00,396.00 L 204.00,396.00 L 204.00,396.00 L 205.00,395.00 L 206.00,395.00 L 206.00,395.00 L 207.00,394.00 L 207.00,394.00 L 208.00,393.00 L 208.00,393.00 L 209.00,392.00 L 210.00,392.00 L 210.00,392.00 L 210.00,391.00 L 211.00,390.00 L 212.00,390.00 L 212.00,390.00 L 213.00,389.00 L 213.00,389.00 L 213.00,388.00 L 214.00,387.00 L 214.00,387.00 L 215.00,386.00 L 215.00,386.00 L 216.00,385.00 L 216.00,385.00 L 216.00,384.00 L 217.00,383.00 L 217.00,383.00 L 217.00,382.00 L 218.00,381.00 L 218.00,381.00 L 218.00,380.00 L 219.00,379.00 L 219.00,379.00 L 219.00,378.00 L 219.00,377.00 L 220.00,376.00 L 220.00,376.00 L 220.00,375.00 L 220.00,374.00 L 221.00,373.00 L 221.00,373.00 L 221.00,372.00 L 221.00,371.00 L 221.00,370.00 L 221.00,369.00 L 222.00,368.00 L 222.00,368.00 L 222.00,367.00 L 222.00,366.00 L 222.00,365.00 L 222.00,364.00 L 222.00,363.00 L 222.00,362.00 L 222.00,361.00 L 222.00,360.00 L 222.00,359.00 L 222.00,358.00 L 222.00,357.00 L 222.00,356.00 L 222.00,355.00 L 222.00,354.00 L 222.00,353.00 L 222.00,352.00 L 222.00,351.00 L 222.00,350.00 L 222.00,349.00 L 222.00,348.00 L 222.00,347.00 L 222.00,346.00 L 222.00,345.00 L 222.00,344.00 L 222.00,343.00 L 222.00,342.00 L 222.00,341.00 L 222.00,340.00 L 222.00,340.00 L 221.00,339.00 L 221.00,338.00 L 221.00,337.00 L 221.00,336.00 L 221.00,335.00 L 221.00,334.00 L 221.00,333.00 L 221.00,332.00 L 221.00,331.00 L 221.00,331.00 L 220.00,330.00 L 220.00,329.00 L 220.00,328.00 L 220.00,327.00 L 220.00,326.00 L 220.00,325.00 L 220.00,324.00 L 220.00,323.00 L 220.00,322.00 L 220.00,321.00 L 220.00,320.00 L 220.00,320.00 L 219.00,319.00 L 219.00,318.00 L 219.00,317.00 L 219.00,316.00 L 220.00,315.00 L 220.00,315.00 L 220.00,314.00 L 220.00,313.00 L 220.00,312.00 L 220.00,311.00 L 221.00,310.00 L 221.00,310.00 L 221.00,309.00 L 222.00,308.00 L 222.00,308.00 L 223.00,307.00 L 223.00,307.00 L 224.00,306.00 L 225.00,306.00 L 226.00,306.00 L 227.00,306.00 L 228.00,306.00 L 229.00,306.00 L 230.00,307.00 L 230.00,307.00 L 231.00,308.00 L 231.00,308.00 L 232.00,309.00 L 232.00,309.00 L 233.00,310.00 L 233.00,310.00 L 234.00,311.00 L 234.00,311.00 L 235.00,312.00 L 235.00,312.00 L 236.00,313.00 L 236.00,314.00 L 236.00,314.00 L 237.00,314.00 L 238.00,315.00 L 238.00,315.00 L 239.00,316.00 L 239.00,316.00 L 240.00,317.00 L 240.00,317.00 L 241.00,318.00 L 241.00,318.00 L 242.00,319.00 L 242.00,319.00 L 243.00,319.00 L 244.00,320.00 L 244.00,320.00 L 245.00,321.00 L 245.00,321.00 L 246.00,321.00 L 247.00,322.00 L 247.00,322.00 L 248.00,323.00 L 248.00,323.00 L 249.00,323.00 L 250.00,324.00 L 250.00,324.00 L 251.00,324.00 L 252.00,324.00 L 253.00,325.00 L 253.00,325.00 L 254.00,325.00 L 255.00,325.00 L 256.00,326.00 L 256.00,326.00 L 257.00,326.00 L 258.00,326.00 L 259.00,326.00 L 260.00,327.00 L 260.00,327.00 L 261.00,327.00 L 262.00,327.00 L 263.00,327.00 L 264.00,327.00 L 265.00,327.00 L 266.00,327.00 L 267.00,327.00 L 268.00,327.00 L 269.00,327.00 L 270.00,327.00 L 270.00,327.00 L 271.00,326.00 L 272.00,326.00 L 273.00,326.00 L 274.00,326.00 L 274.00,326.00 L 274.00,325.00 L 274.00,325.00 L 273.00,324.00 L 273.00,323.00 L 273.00,323.00 L 272.00,322.00 L 272.00,322.00 L 271.00,321.00 L 271.00,321.00 L 270.00,320.00 L 270.00,319.00 L 270.00,319.00 L 269.00,318.00 L 269.00,317.00 L 269.00,317.00 L 268.00,316.00 L 268.00,316.00 L 267.00,315.00 L 267.00,314.00 L 267.00,314.00 L 266.00,313.00 L 266.00,313.00 L 265.00,312.00 L 265.00,311.00 L 265.00,311.00 L 264.00,310.00 L 264.00,310.00 L 263.00,309.00 L 263.00,308.00 L 263.00,308.00 L 262.00,307.00 L 262.00,307.00 L 261.00,306.00 L 261.00,306.00 L 260.00,305.00 L 260.00,304.00 L 260.00,304.00 L 259.00,303.00 L 259.00,303.00 L 258.00,302.00 L 258.00,302.00 L 257.00,301.00 L 257.00,300.00 L 257.00,300.00 L 256.00,299.00 L 256.00,299.00 L 255.00,298.00 L 255.00,298.00 L 254.00,297.00 L 254.00,297.00 L 253.00,296.00 L 253.00,295.00 L 253.00,295.00 L 252.00,294.00 L 252.00,294.00 L 251.00,293.00 L 251.00,293.00 L 250.00,292.00 L 250.00,291.00 L 250.00,291.00 L 249.00,290.00 L 249.00,290.00 L 248.00,289.00 L 248.00,289.00 L 247.00,288.00 L 247.00,288.00 L 246.00,287.00 L 246.00,287.00 L 245.00,286.00 L 245.00,285.00 L 245.00,285.00 L 244.00,284.00 L 244.00,284.00 L 243.00,283.00 L 243.00,283.00 L 242.00,282.00 L 242.00,282.00 L 241.00,281.00 L 241.00,280.00 L 241.00,280.00 L 240.00,279.00 L 240.00,279.00 L 239.00,278.00 L 239.00,278.00 L 238.00,277.00 L 238.00,277.00 L 237.00,276.00 L 237.00,276.00 L 236.00,275.00 L 236.00,274.00 L 236.00,274.00 L 235.00,273.00 L 235.00,273.00 L 234.00,272.00 L 234.00,272.00 L 233.00,271.00 L 233.00,271.00 L 232.00,271.00 L 231.00,271.00 L 231.00,271.00 L 230.00,272.00 L 230.00,272.00 L 229.00,273.00 L 229.00,273.00 L 228.00,274.00 L 228.00,274.00 L 227.00,275.00 L 227.00,275.00 L 226.00,276.00 L 226.00,276.00 L 225.00,277.00 L 225.00,277.00 L 224.00,278.00 L 224.00,278.00 L 223.00,279.00 L 223.00,279.00 L 222.00,280.00 L 222.00,280.00 L 221.00,281.00 L 221.00,281.00 L 220.00,282.00 L 220.00,282.00 L 219.00,283.00 L 219.00,283.00 L 218.00,284.00 L 218.00,284.00 L 217.00,285.00 L 217.00,285.00 L 216.00,286.00 L 216.00,286.00 L 215.00,287.00 L 215.00,287.00 L 214.00,288.00 L 214.00,288.00 L 213.00,289.00 L 213.00,289.00 L 212.00,290.00 L 212.00,290.00 L 211.00,291.00 L 211.00,291.00 L 211.00,292.00 L 210.00,293.00 L 210.00,293.00 L 209.00,294.00 L 209.00,294.00 L 208.00,295.00 L 208.00,295.00 L 207.00,296.00 L 207.00,296.00 L 207.00,297.00 L 207.00,298.00 L 206.00,299.00 L 206.00,299.00 L 206.00,300.00 L 206.00,301.00 L 206.00,302.00 L 206.00,303.00 L 206.00,304.00 L 206.00,305.00 L 206.00,305.00 L 207.00,306.00 L 207.00,307.00 L 207.00,308.00 L 207.00,309.00 L 207.00,310.00 L 207.00,311.00 L 207.00,312.00 L 207.00,313.00 L 207.00,314.00 L 207.00,315.00 L 207.00,316.00 L 207.00,317.00 L 207.00,318.00 L 207.00,318.00 L 208.00,319.00 L 208.00,320.00 L 208.00,321.00 L 208.00,322.00 L 208.00,323.00 L 208.00,324.00 L 208.00,325.00 L 208.00,326.00 L 208.00,327.00 L 208.00,328.00 L 208.00,329.00 L 208.00,329.00 L 209.00,330.00 L 209.00,331.00 L 209.00,332.00 L 209.00,333.00 L 209.00,334.00 L 209.00,335.00 L 209.00,336.00 L 209.00,337.00 L 209.00,338.00 L 209.00,339.00 L 209.00,340.00 L 209.00,341.00 L 209.00,342.00 L 209.00,343.00 L 209.00,344.00 L 209.00,345.00 L 209.00,346.00 L 209.00,347.00 L 209.00,348.00 L 209.00,349.00 L 209.00,350.00 L 209.00,351.00 L 209.00,352.00 L 209.00,353.00 L 209.00,354.00 L 209.00,355.00 L 209.00,356.00 L 209.00,357.00 L 209.00,358.00 L 209.00,359.00 L 208.00,360.00 L 208.00,360.00 L 208.00,361.00 L 208.00,362.00 L 208.00,363.00 L 207.00,364.00 L 207.00,364.00 L 207.00,365.00 L 207.00,366.00 L 206.00,367.00 L 206.00,367.00 L 206.00,368.00 L 205.00,369.00 L 205.00,369.00 L 205.00,370.00 L 204.00,371.00 L 204.00,371.00 L 204.00,372.00 L 203.00,373.00 L 203.00,373.00 L 202.00,374.00 L 202.00,374.00 L 201.00,375.00 L 201.00,375.00 L 201.00,376.00 L 200.00,377.00 L 200.00,377.00 L 199.00,378.00 L 199.00,378.00 L 198.00,379.00 L 197.00,379.00 L 197.00,379.00 L 196.00,380.00 L 196.00,380.00 L 195.00,381.00 L 195.00,381.00 L 194.00,382.00 L 193.00,382.00 L 193.00,382.00 L 192.00,383.00 L 191.00,383.00 L 191.00,383.00 L 190.00,384.00 L 189.00,384.00 L 189.00,384.00 L 188.00,385.00 L 187.00,385.00 L 186.00,385.00 L 186.00,385.00 L 185.00,386.00 L 184.00,386.00 L 183.00,386.00 L 182.00,386.00 L 181.00,386.00 L 180.00,386.00 L 179.00,386.00 L 179.00,386.00 L 178.00,387.00 L 177.00,387.00 L 176.00,387.00 L 175.00,386.00 L 175.00,386.00 L 174.00,386.00 L 173.00,386.00 L 172.00,386.00 L 171.00,386.00 L 170.00,386.00 L 169.00,386.00 L 168.00,385.00 L 168.00,385.00 L 167.00,385.00 L 166.00,385.00 L 165.00,385.00 L 164.00,384.00 L 164.00,384.00 L 163.00,384.00 L 162.00,383.00 L 162.00,383.00 L 161.00,383.00 L 160.00,382.00 L 160.00,382.00 L 159.00,382.00 L 158.00,381.00 L 158.00,381.00 L 157.00,380.00 L 157.00,380.00 L 156.00,380.00 L 155.00,379.00 L 155.00,379.00 L 154.00,378.00 L 154.00,378.00 L 153.00,377.00 L 153.00,377.00 L 152.00,376.00 L 152.00,376.00 L 151.00,375.00 L 151.00,375.00 L 150.00,374.00 L 150.00,374.00 L 149.00,373.00 L 149.00,372.00 L 149.00,372.00 L 148.00,371.00 L 148.00,371.00 L 147.00,370.00 L 147.00,369.00 L 147.00,369.00 L 146.00,368.00 L 146.00,367.00 L 146.00,367.00 L 145.00,366.00 L 145.00,365.00 L 145.00,365.00 L 144.00,364.00 L 144.00,363.00 L 144.00,362.00 L 144.00,362.00 L 143.00,361.00 L 143.00,360.00 L 143.00,359.00 L 143.00,359.00 L 142.00,358.00 L 142.00,357.00 L 142.00,356.00 L 142.00,355.00 L 142.00,354.00 L 142.00,354.00 L 141.00,353.00 L 141.00,352.00 L 141.00,351.00 L 141.00,350.00 L 141.00,349.00 L 141.00,348.00 L 141.00,347.00 L 141.00,346.00 L 141.00,346.00 L 140.00,345.00 L 140.00,344.00 L 140.00,343.00 L 140.00,342.00 L 140.00,341.00 L 140.00,340.00 L 140.00,339.00 L 140.00,338.00 L 140.00,337.00 L 140.00,336.00 L 140.00,335.00 L 140.00,334.00 L 140.00,333.00 L 140.00,332.00 L 140.00,331.00 L 140.00,330.00 L 140.00,329.00 L 140.00,328.00 L 140.00,327.00 L 140.00,326.00 L 140.00,325.00 L 140.00,324.00 L 140.00,323.00 L 140.00,322.00 L 140.00,321.00 L 140.00,320.00 L 140.00,319.00 L 140.00,318.00 L 140.00,317.00 L 140.00,316.00 L 140.00,315.00 L 140.00,314.00 L 140.00,313.00 L 140.00,312.00 L 140.00,311.00 L 140.00,310.00 L 140.00,309.00 L 140.00,308.00 L 140.00,307.00 L 140.00,306.00 L 141.00,305.00 L 141.00,305.00 L 141.00,304.00 L 141.00,303.00 L 141.00,302.00 L 141.00,301.00 L 141.00,300.00 L 141.00,299.00 L 141.00,298.00 L 141.00,297.00 L 141.00,296.00 L 141.00,295.00 L 141.00,294.00 L 141.00,293.00 L 141.00,292.00 L 141.00,291.00 L 141.00,290.00 L 141.00,289.00 L 141.00,288.00 L 141.00,287.00 L 141.00,286.00 L 141.00,285.00 L 142.00,284.00 L 142.00,284.00 L 142.00,283.00 L 142.00,282.00 L 142.00,281.00 L 142.00,280.00 L 142.00,279.00 L 142.00,278.00 L 142.00,277.00 L 142.00,276.00 L 142.00,275.00 L 142.00,274.00 L 142.00,273.00 L 142.00,272.00 L 142.00,271.00 L 142.00,270.00 L 142.00,269.00 L 142.00,268.00 L 142.00,267.00 L 142.00,266.00 L 143.00,265.00 L 143.00,265.00 L 143.00,264.00 L 143.00,263.00 L 143.00,262.00 L 143.00,261.00 L 143.00,260.00 L 143.00,259.00 L 143.00,258.00 L 143.00,257.00 L 143.00,256.00 L 143.00,255.00 L 143.00,254.00 L 143.00,253.00 L 143.00,252.00 L 144.00,251.00 L 144.00,251.00 L 144.00,250.00 L 144.00,249.00 L 144.00,248.00 L 144.00,247.00 L 144.00,246.00 L 144.00,245.00 L 144.00,244.00 L 144.00,243.00 L 144.00,242.00 L 144.00,241.00 L 144.00,240.00 L 144.00,239.00 L 145.00,238.00 L 145.00,238.00 L 145.00,237.00 L 145.00,236.00 L 145.00,235.00 L 145.00,234.00 L 145.00,233.00 L 145.00,232.00 L 145.00,231.00 L 145.00,230.00 L 145.00,229.00 L 145.00,228.00 L 145.00,227.00 L 145.00,226.00 L 145.00,225.00 L 145.00,224.00 L 146.00,223.00 L 146.00,223.00 L 146.00,222.00 L 146.00,221.00 L 146.00,220.00 L 146.00,219.00 L 146.00,218.00 L 146.00,217.00 L 146.00,216.00 L 146.00,215.00 L 146.00,214.00 L 146.00,213.00 L 147.00,212.00 L 147.00,212.00 L 147.00,211.00 L 147.00,210.00 L 147.00,209.00 L 147.00,208.00 L 147.00,207.00 L 147.00,206.00 L 147.00,205.00 L 147.00,204.00 L 147.00,203.00 L 147.00,202.00 L 147.00,201.00 L 147.00,200.00 L 147.00,199.00 L 147.00,198.00 L 147.00,197.00 L 147.00,196.00 L 147.00,195.00 L 147.00,194.00 L 147.00,193.00 L 147.00,192.00 L 147.00,191.00 L 147.00,190.00 L 147.00,189.00 L 147.00,188.00 L 147.00,187.00 L 147.00,186.00 L 147.00,185.00 L 147.00,184.00 L 147.00,183.00 L 147.00,182.00 L 147.00,181.00 L 147.00,180.00 L 147.00,179.00 L 147.00,179.00 L 146.00,178.00 L 146.00,177.00 L 146.00,176.00 L 146.00,175.00 L 146.00,174.00 L 146.00,173.00 L 146.00,172.00 L 146.00,171.00 L 146.00,171.00 L 145.00,170.00 L 145.00,169.00 L 145.00,168.00 L 145.00,167.00 L 145.00,166.00 L 145.00,165.00 L 145.00,164.00 L 145.00,164.00 L 144.00,163.00 L 144.00,162.00 L 144.00,161.00 L 144.00,160.00 L 144.00,159.00 L 144.00,159.00 L 143.00,158.00 L 143.00,157.00 L 143.00,156.00 L 143.00,155.00 L 143.00,154.00 L 143.00,154.00 L 142.00,153.00 L 142.00,152.00 L 142.00,151.00 L 142.00,150.00 L 142.00,149.00 L 142.00,149.00 L 141.00,148.00 L 141.00,147.00 L 141.00,146.00 L 141.00,145.00 L 141.00,145.00 L 140.00,144.00 L 140.00,143.00 L 140.00,142.00 L 140.00,141.00 L 140.00,140.00 L 140.00,139.00 L 140.00,139.00 L 139.00,138.00 L 139.00,137.00 L 139.00,136.00 L 139.00,135.00 L 139.00,134.00 L 139.00,133.00 L 139.00,132.00 L 139.00,131.00 L 139.00,130.00 L 139.00,129.00 L 139.00,128.00 L 139.00,127.00 L 139.00,126.00 L 139.00,125.00 L 139.00,124.00 L 139.00,123.00 L 140.00,122.00 L 140.00,122.00 L 140.00,121.00 L 140.00,120.00 L 140.00,119.00 L 140.00,118.00 L 141.00,117.00 L 141.00,117.00 L 141.00,116.00 L 141.00,115.00 L 142.00,114.00 L 142.00,114.00 L 142.00,113.00 L 142.00,112.00 L 142.00,111.00 L 143.00,110.00 L 143.00,110.00 L 143.00,109.00 L 144.00,108.00 L 144.00,108.00 L 144.00,107.00 L 145.00,106.00 L 145.00,106.00 L 145.00,105.00 L 146.00,104.00 L 146.00,104.00 L 147.00,103.00 L 147.00,103.00 L 148.00,102.00 L 148.00,102.00 L 148.00,101.00 L 149.00,100.00 L 149.00,100.00 L 150.00,99.00 L 150.00,99.00 L 151.00,98.00 L 152.00,98.00 L 152.00,98.00 L 153.00,97.00 L 153.00,97.00 L 154.00,96.00 L 154.00,96.00 L 155.00,95.00 L 155.00,95.00 L 156.00,94.00 L 157.00,94.00 L 157.00,94.00 L 158.00,93.00 L 159.00,93.00 L 159.00,93.00 L 160.00,92.00 L 161.00,92.00 L 161.00,92.00 L 162.00,91.00 L 163.00,91.00 L 164.00,91.00 L 164.00,91.00 L 165.00,90.00 L 166.00,90.00 L 167.00,90.00 L 167.00,90.00 L 168.00,89.00 L 169.00,89.00 L 170.00,89.00 L 171.00,89.00 L 172.00,89.00 L 173.00,89.00 L 174.00,89.00 L 175.00,89.00 L 176.00,89.00 L 177.00,89.00 L 178.00,89.00 L 179.00,89.00 L 180.00,89.00 L 181.00,89.00 L 182.00,90.00 L 182.00,90.00 L 183.00,90.00 L 184.00,90.00 L 185.00,90.00 L 186.00,91.00 L 186.00,91.00 L 187.00,91.00 L 188.00,92.00 L 188.00,92.00 L 189.00,92.00 L 190.00,92.00 L 191.00,93.00 L 191.00,93.00 L 192.00,94.00 L 192.00,94.00 L 193.00,94.00 L 194.00,95.00 L 194.00,95.00 L 195.00,96.00 L 195.00,96.00 L 196.00,97.00 L 196.00,97.00 L 197.00,98.00 L 197.00,98.00 L 198.00,99.00 L 198.00,99.00 L 199.00,100.00 L 199.00,100.00 L 200.00,101.00 L 200.00,101.00 L 201.00,102.00 L 201.00,102.00 L 202.00,103.00 L 202.00,104.00 L 202.00,104.00 L 203.00,105.00 L 203.00,106.00 L 203.00,106.00 L 204.00,107.00 L 204.00,108.00 L 204.00,108.00 L 205.00,109.00 L 205.00,110.00 L 205.00,110.00 L 206.00,111.00 L 206.00,112.00 L 206.00,113.00 L 206.00,114.00 L 206.00,114.00 L 207.00,115.00 L 207.00,116.00 L 207.00,117.00 L 207.00,118.00 L 207.00,119.00 L 207.00,119.00 L 208.00,120.00 L 208.00,121.00 L 208.00,122.00 L 208.00,123.00 L 208.00,124.00 L 208.00,125.00 L 208.00,126.00 L 208.00,127.00 L 208.00,128.00 L 208.00,129.00 L 208.00,130.00 L 208.00,131.00 L 208.00,132.00 L 208.00,133.00 L 208.00,134.00 L 208.00,135.00 L 208.00,136.00 L 208.00,137.00 L 208.00,138.00 L 208.00,139.00 L 208.00,140.00 L 208.00,141.00 L 208.00,142.00 L 208.00,143.00 L 208.00,144.00 L 208.00,145.00 L 208.00,146.00 L 208.00,147.00 L 208.00,148.00 L 208.00,149.00 L 208.00,150.00 L 208.00,151.00 L 207.00,152.00 L 207.00,152.00 L 207.00,153.00 L 207.00,154.00 L 207.00,155.00 L 207.00,156.00 L 207.00,157.00 L 207.00,158.00 L 207.00,159.00 L 207.00,160.00 L 207.00,161.00 L 207.00,162.00 L 207.00,163.00 L 207.00,164.00 L 207.00,165.00 L 207.00,166.00 L 207.00,167.00 L 206.00,168.00 L 206.00,168.00 L 206.00,169.00 L 206.00,170.00 L 206.00,171.00 L 206.00,172.00 L 206.00,173.00 L 206.00,174.00 L 206.00,175.00 L 206.00,176.00 L 206.00,177.00 L 206.00,178.00 L 206.00,179.00 L 206.00,180.00 L 206.00,181.00 L 206.00,182.00 L 206.00,183.00 L 206.00,184.00 L 206.00,185.00 L 206.00,186.00 L 206.00,187.00 L 206.00,188.00 L 206.00,189.00 L 206.00,190.00 L 206.00,191.00 L 206.00,192.00 L 206.00,193.00 L 206.00,194.00 L 206.00,195.00 L 206.00,196.00 L 206.00,197.00 L 206.00,198.00 L 206.00,199.00 L 206.00,200.00 L 206.00,201.00 L 206.00,202.00 L 206.00,203.00 L 206.00,204.00 L 206.00,205.00 L 206.00,206.00 L 206.00,207.00 L 206.00,208.00 L 206.00,209.00 L 206.00,210.00 L 206.00,211.00 L 206.00,212.00 L 206.00,213.00 L 206.00,214.00 L 206.00,215.00 L 206.00,216.00 L 206.00,217.00 L 206.00,218.00 L 206.00,219.00 L 206.00,220.00 L 206.00,221.00 L 206.00,222.00 L 206.00,223.00 L 206.00,224.00 L 206.00,225.00 L 206.00,226.00 L 206.00,226.00 L 206.00,226.00 L 207.00,225.00 L 207.00,225.00 L 208.00,224.00 L 208.00,224.00 L 209.00,223.00 L 209.00,223.00 L 210.00,222.00 L 210.00,222.00 L 211.00,221.00 L 211.00,221.00 L 212.00,220.00 L 212.00,220.00 L 212.00,219.00 L 213.00,218.00 L 213.00,218.00 L 214.00,217.00 L 214.00,217.00 L 215.00,216.00 L 215.00,216.00 L 216.00,215.00 L 216.00,215.00 L 217.00,214.00 L 217.00,214.00 L 218.00,213.00 L 218.00,213.00 L 218.00,212.00 L 219.00,211.00 L 219.00,211.00 L 220.00,210.00 L 220.00,210.00 L 221.00,209.00 L 221.00,209.00 L 222.00,208.00 L 222.00,208.00 L 223.00,207.00 L 223.00,207.00 L 224.00,206.00 L 224.00,206.00 L 225.00,205.00 L 225.00,205.00 L 226.00,204.00 L 226.00,204.00 L 226.00,203.00 L 227.00,202.00 L 227.00,202.00 L 228.00,201.00 L 228.00,201.00 L 229.00,200.00 L 229.00,200.00 L 230.00,199.00 L 230.00,199.00 L 231.00,198.00 L 231.00,198.00 L 232.00,197.00 L 232.00,197.00 L 233.00,196.00 L 233.00,196.00 L 234.00,195.00 L 234.00,195.00 L 235.00,194.00 L 235.00,194.00 L 236.00,193.00 L 236.00,193.00 L 236.00,192.00 L 237.00,191.00 L 237.00,191.00 L 238.00,190.00 L 238.00,190.00 L 239.00,189.00 L 239.00,189.00 L 240.00,188.00 L 240.00,188.00 L 241.00,187.00 L 241.00,187.00 L 242.00,186.00 L 242.00,186.00 L 243.00,185.00 L 243.00,185.00 L 244.00,184.00 L 244.00,184.00 L 245.00,183.00 L 245.00,183.00 L 245.00,182.00 L 246.00,181.00 L 246.00,181.00 L 247.00,180.00 L 247.00,180.00 L 248.00,179.00 L 248.00,179.00 L 249.00,178.00 L 249.00,178.00 L 250.00,177.00 L 250.00,177.00 L 251.00,176.00 L 251.00,176.00 L 252.00,175.00 L 252.00,175.00 L 253.00,174.00 L 253.00,174.00 L 254.00,173.00 L 254.00,173.00 L 255.00,172.00 L 255.00,172.00 L 256.00,171.00 L 256.00,171.00 L 257.00,170.00 L 257.00,170.00 L 258.00,169.00 L 258.00,169.00 L 259.00,168.00 L 259.00,168.00 L 260.00,167.00 L 260.00,167.00 L 261.00,166.00 L 261.00,166.00 L 262.00,165.00 L 262.00,165.00 L 263.00,164.00 L 263.00,164.00 L 264.00,163.00 L 264.00,163.00 L 265.00,162.00 L 265.00,162.00 L 266.00,161.00 L 266.00,161.00 L 267.00,160.00 L 267.00,160.00 L 268.00,159.00 L 268.00,159.00 L 269.00,158.00 L 269.00,158.00 L 270.00,157.00 L 270.00,157.00 L 271.00,156.00 L 271.00,156.00 L 272.00,155.00 L 272.00,155.00 L 273.00,154.00 L 273.00,154.00 L 274.00,153.00 L 274.00,153.00 L 275.00,152.00 L 276.00,152.00 L 276.00,152.00 L 277.00,151.00 L 277.00,151.00 L 278.00,150.00 L 278.00,150.00 L 279.00,149.00 L 279.00,149.00 L 280.00,148.00 L 281.00,148.00 L 281.00,148.00 L 282.00,147.00 L 282.00,147.00 L 283.00,146.00 L 283.00,146.00 L 284.00,145.00 L 284.00,145.00 L 285.00,144.00 L 286.00,144.00 L 286.00,144.00 L 287.00,143.00 L 287.00,143.00 L 288.00,142.00 L 289.00,142.00 L 289.00,142.00 L 290.00,141.00 L 290.00,141.00 L 291.00,140.00 L 292.00,140.00 L 292.00,140.00 L 293.00,139.00 L 293.00,139.00 L 294.00,138.00 L 295.00,138.00 L 295.00,138.00 L 296.00,137.00 L 297.00,137.00 L 297.00,137.00 L 298.00,136.00 L 299.00,136.00 L 299.00,136.00 L 300.00,135.00 L 301.00,135.00 L 301.00,135.00 L 302.00,134.00 L 303.00,134.00 L 304.00,134.00 L 305.00,134.00 L 305.00,134.00 L 306.00,133.00 L 307.00,133.00 L 308.00,133.00 L 308.00,133.00 L 309.00,132.00 L 310.00,132.00 L 311.00,132.00 L 312.00,132.00 L 313.00,132.00 L 314.00,132.00 L 315.00,132.00 L 316.00,132.00 L 317.00,132.00 L 318.00,132.00 L 319.00,132.00 L 320.00,132.00 L 321.00,132.00 L 322.00,132.00 L 323.00,133.00 L 323.00,133.00 L 324.00,133.00 L 325.00,133.00 L 326.00,134.00 L 326.00,134.00 L 327.00,134.00 L 328.00,134.00 L 329.00,135.00 L 329.00,135.00 L 330.00,136.00 L 330.00,136.00 L 331.00,136.00 L 332.00,137.00 L 332.00,137.00 L 333.00,138.00 L 333.00,138.00 L 334.00,139.00 L 334.00,139.00 L 335.00,139.00 L 336.00,140.00 L 336.00,140.00 L 337.00,141.00 L 337.00,141.00 L 338.00,142.00 L 338.00,142.00 L 339.00,143.00 L 339.00,144.00 L 339.00,144.00 L 340.00,145.00 L 340.00,145.00 L 341.00,146.00 L 341.00,147.00 L 341.00,147.00 L 342.00,148.00 L 342.00,149.00 L 342.00,149.00 L 343.00,150.00 L 343.00,151.00 L 343.00,152.00 L 343.00,152.00 L 344.00,153.00 L 344.00,154.00 L 344.00,155.00 L 344.00,156.00 L 344.00,156.00 L 345.00,157.00 L 345.00,158.00 L 345.00,159.00 L 345.00,160.00 L 345.00,161.00 L 345.00,162.00 L 345.00,163.00 L 344.00,164.00 L 344.00,164.00 L 344.00,165.00 L 344.00,166.00 L 344.00,167.00 L 344.00,168.00 L 343.00,169.00 L 343.00,169.00 L 343.00,170.00 L 343.00,171.00 L 342.00,172.00 L 342.00,172.00 L 342.00,173.00 L 341.00,174.00 L 341.00,174.00 L 341.00,175.00 L 340.00,176.00 L 340.00,176.00 L 339.00,177.00 L 339.00,177.00 L 339.00,178.00 L 338.00,179.00 L 338.00,179.00 L 337.00,180.00 L 337.00,180.00 L 336.00,181.00 L 336.00,181.00 L 336.00,182.00 L 335.00,183.00 L 335.00,183.00 L 334.00,184.00 L 334.00,184.00 L 333.00,185.00 L 333.00,185.00 L 332.00,186.00 L 332.00,186.00 L 331.00,187.00 L 331.00,187.00 L 330.00,188.00 L 330.00,188.00 L 329.00,189.00 L 328.00,189.00 L 328.00,189.00 L 327.00,190.00 L 327.00,190.00 L 326.00,191.00 L 326.00,191.00 L 325.00,192.00 L 325.00,192.00 L 324.00,193.00 L 324.00,193.00 L 323.00,194.00 L 323.00,194.00 L 322.00,195.00 L 321.00,195.00 L 321.00,195.00 L 320.00,196.00 L 320.00,196.00 L 319.00,197.00 L 319.00,197.00 L 318.00,198.00 L 318.00,198.00 L 317.00,199.00 L 316.00,199.00 L 316.00,199.00 L 315.00,200.00 L 315.00,200.00 L 314.00,201.00 L 314.00,201.00 L 313.00,202.00 L 313.00,202.00 L 312.00,203.00 L 311.00,203.00 L 311.00,203.00 L 310.00,204.00 L 310.00,204.00 L 309.00,205.00 L 309.00,205.00 L 308.00,206.00 L 308.00,206.00 L 307.00,207.00 L 306.00,207.00 L 306.00,207.00 L 305.00,208.00 L 305.00,208.00 L 304.00,209.00 L 304.00,209.00 L 303.00,210.00 L 302.00,210.00 L 302.00,210.00 L 301.00,211.00 L 301.00,211.00 L 300.00,212.00 L 300.00,212.00 L 299.00,213.00 L 298.00,213.00 L 298.00,213.00 L 297.00,214.00 L 297.00,214.00 L 296.00,215.00 L 296.00,215.00 L 295.00,216.00 L 295.00,216.00 L 294.00,217.00 L 293.00,217.00 L 293.00,217.00 L 292.00,218.00 L 292.00,218.00 L 291.00,219.00 L 291.00,219.00 L 290.00,220.00 L 290.00,220.00 L 289.00,221.00 L 289.00,221.00 L 288.00,222.00 L 287.00,222.00 L 287.00,222.00 L 286.00,223.00 L 286.00,223.00 L 285.00,224.00 L 285.00,224.00 L 284.00,225.00 L 284.00,225.00 L 283.00,226.00 L 283.00,226.00 L 282.00,227.00 L 282.00,227.00 L 281.00,228.00 L 280.00,228.00 L 280.00,228.00 L 279.00,229.00 L 279.00,229.00 L 278.00,230.00 L 278.00,230.00 L 277.00,231.00 L 277.00,231.00 L 276.00,232.00 L 276.00,232.00 L 275.00,233.00 L 275.00,233.00 L 274.00,234.00 L 274.00,234.00 L 273.00,235.00 L 273.00,235.00 L 272.00,236.00 L 272.00,236.00 L 271.00,237.00 L 271.00,237.00 L 270.00,238.00 L 270.00,238.00 L 270.00,239.00 L 270.00,239.00 L 271.00,240.00 L 271.00,240.00 L 272.00,241.00 L 272.00,241.00 L 273.00,242.00 L 273.00,242.00 L 274.00,243.00 L 274.00,243.00 L 275.00,244.00 L 275.00,244.00 L 276.00,244.00 L 277.00,245.00 L 277.00,245.00 L 278.00,246.00 L 278.00,246.00 L 279.00,247.00 L 279.00,247.00 L 280.00,248.00 L 280.00,248.00 L 281.00,249.00 L 281.00,249.00 L 282.00,250.00 L 282.00,250.00 L 283.00,251.00 L 283.00,251.00 L 284.00,252.00 L 284.00,252.00 L 285.00,253.00 L 285.00,253.00 L 286.00,254.00 L 286.00,254.00 L 287.00,255.00 L 287.00,255.00 L 288.00,256.00 L 288.00,256.00 L 289.00,257.00 L 289.00,257.00 L 290.00,258.00 L 290.00,258.00 L 291.00,258.00 L 292.00,259.00 L 292.00,259.00 L 293.00,260.00 L 293.00,260.00 L 294.00,261.00 L 294.00,261.00 L 295.00,262.00 L 295.00,262.00 L 296.00,263.00 L 296.00,263.00 L 297.00,264.00 L 297.00,264.00 L 298.00,265.00 L 298.00,265.00 L 299.00,266.00 L 299.00,266.00 L 300.00,267.00 L 300.00,267.00 L 301.00,268.00 L 301.00,268.00 L 302.00,269.00 L 302.00,269.00 L 303.00,270.00 L 303.00,270.00 L 304.00,271.00 L 304.00,271.00 L 305.00,271.00 L 306.00,272.00 L 306.00,272.00 L 307.00,273.00 L 307.00,273.00 L 308.00,274.00 L 308.00,274.00 L 309.00,275.00 L 309.00,275.00 L 310.00,276.00 L 310.00,276.00 L 311.00,277.00 L 311.00,277.00 L 312.00,278.00 L 312.00,278.00 L 313.00,279.00 L 313.00,279.00 L 314.00,280.00 L 314.00,280.00 L 315.00,281.00 L 315.00,281.00 L 316.00,282.00 L 316.00,282.00 L 317.00,283.00 L 317.00,283.00 L 318.00,284.00 L 318.00,284.00 L 319.00,285.00 L 319.00,285.00 L 320.00,286.00 L 320.00,286.00 L 321.00,287.00 L 321.00,287.00 L 322.00,288.00 L 322.00,288.00 L 323.00,289.00 L 323.00,289.00 L 324.00,290.00 L 324.00,290.00 L 325.00,291.00 L 325.00,291.00 L 326.00,292.00 L 326.00,292.00 L 327.00,293.00 L 327.00,293.00 L 328.00,294.00 L 328.00,294.00 L 329.00,295.00 L 329.00,295.00 L 330.00,296.00 L 330.00,296.00 L 331.00,297.00 L 331.00,298.00 L 331.00,298.00 L 332.00,299.00 L 332.00,299.00 L 333.00,300.00 L 333.00,300.00 L 334.00,301.00 L 334.00,301.00 L 335.00,302.00 L 335.00,302.00 L 336.00,303.00 L 336.00,303.00 L 337.00,304.00 L 337.00,305.00 L 337.00,305.00 L 338.00,306.00 L 338.00,306.00 L 339.00,307.00 L 339.00,307.00 L 340.00,308.00 L 340.00,309.00 L 340.00,309.00 L 341.00,310.00 L 341.00,310.00 L 342.00,311.00 L 342.00,311.00 L 343.00,312.00 L 343.00,313.00 L 343.00,313.00 L 344.00,314.00 L 344.00,314.00 L 345.00,315.00 L 345.00,316.00 L 345.00,316.00 L 346.00,317.00 L 346.00,318.00 L 346.00,318.00 L 347.00,319.00 L 347.00,319.00 L 348.00,320.00 L 348.00,321.00 L 348.00,322.00 L 348.00,322.00 L 349.00,323.00 L 349.00,324.00 L 349.00,325.00 L 349.00,325.00 L 350.00,326.00 L 350.00,327.00 L 350.00,327.00 L 351.00,328.00 L 351.00,329.00 L 351.00,330.00 L 351.00,331.00 L 351.00,332.00 L 351.00,333.00 L 351.00,333.00 L 352.00,334.00 L 352.00,335.00 L 352.00,336.00 L 352.00,337.00 L 352.00,338.00 L 351.00,339.00 L 351.00,339.00 L 351.00,340.00 L 351.00,341.00 L 351.00,342.00 L 351.00,343.00 L 350.00,344.00 L 350.00,344.00 L 350.00,345.00 L 349.00,346.00 L 349.00,346.00 L 349.00,347.00 L 348.00,348.00 L 348.00,348.00 L 347.00,349.00 L 347.00,349.00 L 346.00,350.00 L 346.00,350.00 L 346.00,351.00 L 345.00,352.00 L 344.00,352.00 L 344.00,352.00 L 343.00,353.00 L 343.00,353.00 L 342.00,354.00 L 342.00,354.00 L 341.00,355.00 L 341.00,355.00 L 340.00,356.00 L 339.00,356.00 L 338.00,356.00 L 338.00,356.00 L 337.00,357.00 L 336.00,357.00 L 336.00,357.00 L 335.00,358.00 L 334.00,358.00 L 333.00,358.00 L 333.00,358.00 L 332.00,359.00 L 331.00,359.00 L 330.00,359.00 L 329.00,359.00 L 328.00,359.00 L 328.00,359.00 L 327.00,360.00 L 326.00,360.00 L 325.00,360.00 L 324.00,360.00 L 323.00,360.00 L 322.00,360.00 L 321.00,360.00 L 320.00,360.00 L 319.00,360.00 L 318.00,360.00 L 317.00,360.00 L 316.00,359.00 L 316.00,359.00 L 315.00,359.00 L 314.00,359.00 L 313.00,359.00 L 312.00,359.00 L 311.00,359.00 L 310.00,358.00 L 310.00,358.00 L 309.00,358.00 L 308.00,358.00 L 307.00,357.00 L 307.00,357.00 L 306.00,357.00 L 305.00,356.00 L 305.00,356.00 L 304.00,356.00 L 303.00,356.00 L 302.00,355.00 L 302.00,355.00 L 301.00,354.00 L 301.00,354.00 L 300.00,354.00 L 299.00,353.00 L 299.00,353.00 L 298.00,352.00 L 298.00,352.00 L 298.00,352.00 L 298.00,352.00 L 299.00,353.00 L 299.00,353.00 L 300.00,354.00 L 300.00,354.00 L 301.00,355.00 L 301.00,356.00 L 301.00,356.00 L 302.00,357.00 L 302.00,357.00 L 303.00,357.00 L 304.00,358.00 L 304.00,358.00 L 305.00,359.00 L 305.00,359.00 L 306.00,360.00 L 306.00,360.00 L 307.00,361.00 L 307.00,361.00 L 308.00,361.00 L 309.00,362.00 L 309.00,362.00 L 310.00,363.00 L 310.00,363.00 L 311.00,363.00 L 312.00,364.00 L 312.00,364.00 L 313.00,364.00 L 314.00,365.00 L 314.00,365.00 L 315.00,365.00 L 316.00,365.00 L 317.00,366.00 L 317.00,366.00 L 318.00,366.00 L 319.00,366.00 L 320.00,367.00 L 320.00,367.00 L 321.00,367.00 L 322.00,367.00 L 323.00,367.00 L 324.00,367.00 L 325.00,368.00 L 325.00,368.00 L 326.00,368.00 L 327.00,368.00 L 328.00,368.00 L 329.00,368.00 L 330.00,368.00 L 331.00,368.00 L 332.00,368.00 L 333.00,368.00 L 334.00,368.00 L 335.00,368.00 L 336.00,368.00 L 337.00,368.00 L 338.00,368.00 L 339.00,368.00 L 340.00,368.00 L 341.00,368.00 L 342.00,368.00 L 343.00,368.00 L 344.00,368.00 L 345.00,368.00 L 346.00,368.00 L 347.00,368.00 L 347.00,368.00 L 348.00,367.00 L 349.00,367.00 L 350.00,367.00 L 351.00,367.00 L 351.00,367.00 L 352.00,366.00 L 353.00,366.00 L 354.00,366.00 L 355.00,366.00 L 355.00,366.00 L 356.00,365.00 L 357.00,365.00 L 357.00,365.00 L 358.00,364.00 L 359.00,364.00 L 359.00,364.00 L 360.00,363.00 L 361.00,363.00 L 361.00,363.00 L 362.00,362.00 L 363.00,362.00 L 363.00,362.00 L 364.00,361.00 L 364.00,361.00 L 365.00,360.00 L 365.00,360.00 L 366.00,359.00 L 366.00,359.00 L 367.00,358.00 L 367.00,358.00 L 368.00,357.00 L 368.00,357.00 L 369.00,356.00 L 369.00,356.00 L 370.00,355.00 L 370.00,355.00 L 370.00,354.00 L 371.00,353.00 L 371.00,353.00 L 371.00,352.00 L 371.00,351.00 L 372.00,350.00 L 372.00,350.00 L 372.00,349.00 L 372.00,348.00 L 372.00,347.00 L 372.00,346.00 L 372.00,345.00 L 372.00,344.00 L 372.00,343.00 L 372.00,342.00 L 372.00,342.00 L 371.00,341.00 L 371.00,340.00 L 371.00,339.00 L 371.00,339.00 L 370.00,338.00 L 370.00,337.00 L 370.00,337.00 L 369.00,336.00 L 369.00,336.00 L 368.00,335.00 L 368.00,335.00 L 367.00,334.00 L 367.00,334.00 L 366.00,333.00 L 366.00,333.00 L 365.00,332.00 L 365.00,332.00 L 364.00,332.00 L 363.00,331.00 L 363.00,331.00 L 362.00,330.00 L 362.00,330.00 L 361.00,329.00 L 361.00,329.00 L 360.00,328.00 L 360.00,327.00 L 360.00,327.00 L 359.00,326.00 L 359.00,325.00 L 360.00,324.00 L 360.00,324.00 L 360.00,323.00 L 361.00,322.00 L 361.00,322.00 L 361.00,321.00 L 362.00,320.00 L 363.00,320.00 L 363.00,320.00 L 364.00,319.00 L 364.00,319.00 L 365.00,318.00 L 366.00,318.00 L 367.00,318.00 L 368.00,318.00 L 369.00,318.00 L 370.00,318.00 L 371.00,318.00 L 372.00,318.00 L 373.00,318.00 L 374.00,318.00 L 375.00,318.00 L 376.00,318.00 L 377.00,318.00 L 378.00,318.00 L 379.00,318.00 L 380.00,318.00 L 381.00,318.00 L 382.00,318.00 L 383.00,318.00 L 384.00,318.00 L 385.00,318.00 L 386.00,318.00 L 387.00,318.00 L 388.00,318.00 L 389.00,318.00 L 389.00,318.00 L 390.00,317.00 L 391.00,317.00 L 392.00,317.00 L 393.00,317.00 L 394.00,317.00 L 394.00,317.00 L 395.00,316.00 L 396.00,316.00 L 397.00,316.00 L 398.00,316.00 L 398.00,316.00 L 399.00,315.00 L 400.00,315.00 L 401.00,315.00 L 402.00,315.00 L 402.00,315.00 L 403.00,314.00 L 404.00,314.00 L 404.00,314.00 L 405.00,313.00 L 406.00,313.00 L 407.00,313.00 L 407.00,313.00 L 408.00,312.00 L 409.00,312.00 L 410.00,312.00 L 410.00,312.00 L 411.00,311.00 L 412.00,311.00 L 412.00,311.00 L 413.00,310.00 L 413.00,310.00 L 414.00,309.00 L 415.00,309.00 L 416.00,309.00 L 416.00,309.00 L 417.00,308.00 L 417.00,308.00 L 418.00,307.00 L 419.00,307.00 L 419.00,307.00 L 420.00,306.00 L 421.00,306.00 L 421.00,306.00 L 422.00,305.00 L 422.00,305.00 L 423.00,304.00 L 423.00,304.00 L 424.00,303.00 L 425.00,303.00 L 425.00,303.00 L 426.00,302.00 L 426.00,302.00 L 427.00,301.00 L 427.00,301.00 L 428.00,300.00 L 429.00,300.00 L 429.00,300.00 L 430.00,299.00 L 430.00,299.00 L 431.00,298.00 L 431.00,298.00 L 432.00,297.00 L 432.00,297.00 L 433.00,296.00 L 433.00,296.00 L 434.00,295.00 L 434.00,295.00 L 435.00,294.00 L 435.00,294.00 L 435.00,293.00 L 436.00,292.00 L 436.00,292.00 L 437.00,291.00 L 437.00,291.00 L 438.00,290.00 L 438.00,290.00 L 439.00,289.00 L 439.00,289.00 L 439.00,288.00 L 440.00,287.00 L 440.00,287.00 L 441.00,286.00 L 441.00,286.00 L 441.00,285.00 L 442.00,284.00 L 442.00,284.00 L 443.00,283.00 L 443.00,283.00 L 443.00,282.00 L 444.00,281.00 L 444.00,281.00 L 444.00,280.00 L 445.00,279.00 L 445.00,279.00 L 445.00,278.00 L 445.00,277.00 L 446.00,276.00 L 446.00,276.00 L 446.00,275.00 L 447.00,274.00 L 447.00,274.00 L 447.00,273.00 L 447.00,272.00 L 448.00,271.00 L 448.00,271.00 L 448.00,270.00 L 448.00,269.00 L 448.00,268.00 L 449.00,267.00 L 449.00,267.00 L 449.00,266.00 L 449.00,265.00 L 449.00,264.00 L 449.00,263.00 L 450.00,262.00 L 450.00,262.00 L 450.00,261.00 L 450.00,260.00 L 450.00,259.00 L 450.00,258.00 L 450.00,257.00 L 450.00,256.00 L 450.00,255.00 L 450.00,254.00 L 450.00,253.00 L 450.00,252.00 L 450.00,251.00 L 450.00,250.00 L 450.00,249.00 L 450.00,248.00 L 450.00,248.00 L 449.00,247.00 L 449.00,246.00 L 449.00,245.00 L 449.00,244.00 L 449.00,243.00 L 449.00,243.00 L 448.00,242.00 L 448.00,241.00 L 448.00,240.00 L 448.00,239.00 L 448.00,238.00 L 448.00,238.00 L 447.00,237.00 L 447.00,236.00 L 447.00,235.00 L 447.00,235.00 L 446.00,234.00 L 446.00,233.00 L 446.00,233.00 L 445.00,232.00 L 445.00,231.00 L 445.00,230.00 L 445.00,230.00 L 444.00,229.00 L 444.00,228.00 L 444.00,228.00 L 443.00,227.00 L 443.00,227.00 L 442.00,226.00 L 442.00,225.00 L 442.00,225.00 L 441.00,224.00 L 441.00,223.00 L 441.00,223.00 L 440.00,222.00 L 440.00,222.00 L 439.00,221.00 L 439.00,220.00 L 439.00,220.00 L 438.00,219.00 L 438.00,219.00 L 437.00,218.00 L 437.00,218.00 L 436.00,217.00 L 436.00,216.00 L 436.00,216.00 L 435.00,215.00 L 435.00,215.00 L 434.00,214.00 L 434.00,214.00 L 433.00,213.00 L 433.00,213.00 L 432.00,212.00 L 432.00,212.00 L 431.00,211.00 L 431.00,211.00 L 430.00,210.00 L 430.00,210.00 L 429.00,209.00 L 429.00,209.00 L 428.00,208.00 L 428.00,208.00 L 427.00,208.00 L 426.00,207.00 L 426.00,207.00 L 425.00,206.00 L 425.00,206.00 L 424.00,205.00 L 424.00,205.00 L 423.00,205.00 L 422.00,204.00 L 422.00,204.00 L 421.00,203.00 L 421.00,203.00 L 420.00,203.00 L 419.00,202.00 L 419.00,202.00 L 418.00,202.00 L 417.00,201.00 L 417.00,201.00 L 416.00,201.00 L 415.00,200.00 L 415.00,200.00 L 414.00,200.00 L 413.00,199.00 L 413.00,199.00 L 412.00,199.00 L 411.00,199.00 L 410.00,198.00 L 410.00,198.00 L 409.00,198.00 L 408.00,198.00 L 407.00,197.00 L 407.00,197.00 L 406.00,197.00 L 405.00,197.00 L 404.00,197.00 L 403.00,196.00 L 403.00,196.00 L 402.00,196.00 L 401.00,196.00 L 400.00,196.00 L 399.00,196.00 L 398.00,196.00 L 397.00,196.00 L 396.00,196.00 L 395.00,196.00 L 394.00,196.00 L 393.00,196.00 L 392.00,196.00 L 391.00,196.00 L 390.00,196.00 L 389.00,196.00 L 388.00,196.00 L 387.00,196.00 L 386.00,196.00 L 385.00,196.00 L 384.00,196.00 L 384.00,196.00 L 383.00,197.00 L 382.00,197.00 L 381.00,197.00 L 381.00,197.00 L 380.00,198.00 L 379.00,198.00 L 378.00,198.00 L 377.00,198.00 L 377.00,198.00 L 376.00,199.00 L 375.00,199.00 L 374.00,198.00 L 374.00,198.00 L 373.00,198.00 L 372.00,198.00 L 371.00,197.00 L 371.00,197.00 L 370.00,196.00 L 370.00,196.00 L 369.00,195.00 L 369.00,195.00 L 368.00,194.00 L 368.00,193.00 L 368.00,192.00 L 368.00,191.00 L 368.00,190.00 L 369.00,189.00 L 369.00,189.00 L 369.00,188.00 L 370.00,187.00 L 370.00,187.00 L 370.00,186.00 L 371.00,185.00 L 371.00,185.00 L 371.00,184.00 L 372.00,183.00 L 372.00,183.00 L 372.00,182.00 L 373.00,181.00 L 373.00,181.00 L 373.00,180.00 L 374.00,179.00 L 374.00,179.00 L 374.00,178.00 L 375.00,177.00 L 375.00,177.00 L 375.00,176.00 L 376.00,175.00 L 376.00,175.00 L 376.00,174.00 L 376.00,173.00 L 377.00,172.00 L 377.00,172.00 L 377.00,171.00 L 377.00,170.00 L 378.00,169.00 L 378.00,169.00 L 378.00,168.00 L 379.00,167.00 L 379.00,167.00 L 379.00,166.00 L 379.00,165.00 L 380.00,164.00 L 380.00,164.00 L 380.00,163.00 L 380.00,162.00 L 381.00,161.00 L 381.00,161.00 L 381.00,160.00 L 381.00,159.00 L 382.00,158.00 L 382.00,158.00 L 382.00,157.00 L 382.00,156.00 L 382.00,155.00 L 382.00,154.00 L 382.00,153.00 L 382.00,152.00 L 382.00,151.00 L 383.00,150.00 L 383.00,150.00 L 383.00,149.00 L 383.00,148.00 L 383.00,147.00 L 383.00,146.00 L 383.00,145.00 L 383.00,144.00 L 383.00,143.00 L 383.00,142.00 L 383.00,142.00 L 382.00,141.00 L 382.00,140.00 L 382.00,139.00 L 382.00,138.00 L 382.00,137.00 L 382.00,136.00 L 382.00,136.00 L 381.00,135.00 L 381.00,134.00 L 381.00,133.00 L 381.00,133.00 L 380.00,132.00 L 380.00,132.00 L 379.00,132.00 L 379.00,132.00 L 378.00,133.00 L 378.00,133.00 L 377.00,134.00 L 377.00,134.00 L 376.00,135.00 L 376.00,135.00 L 375.00,136.00 L 374.00,136.00 L 374.00,136.00 L 373.00,137.00 L 372.00,137.00 L 372.00,137.00 L 371.00,138.00 L 371.00,138.00 L 370.00,139.00 L 369.00,139.00 L 369.00,139.00 L 368.00,140.00 L 367.00,140.00 L 366.00,140.00 L 365.00,140.00 L 365.00,140.00 L 364.00,141.00 L 363.00,141.00 L 362.00,141.00 L 361.00,141.00 L 360.00,141.00 L 359.00,141.00 L 358.00,141.00 L 357.00,141.00 L 356.00,141.00 L 355.00,141.00 L 354.00,141.00 L 353.00,141.00 L 352.00,141.00 L 351.00,140.00 L 351.00,140.00 L 350.00,140.00 L 349.00,140.00 L 348.00,140.00 L 347.00,139.00 L 347.00,139.00 L 346.00,139.00 L 345.00,138.00 L 345.00,138.00 L 344.00,138.00 L 343.00,137.00 L 343.00,137.00 L 342.00,137.00 L 341.00,136.00 L 341.00,136.00 L 340.00,135.00 L 340.00,135.00 L 339.00,135.00 L 338.00,134.00 L 338.00,134.00 L 337.00,133.00 L 337.00,133.00 L 336.00,132.00 L 336.00,132.00 L 335.00,131.00 L 335.00,131.00 L 334.00,130.00 L 334.00,130.00 L 333.00,129.00 L 333.00,129.00 L 332.00,128.00 L 332.00,127.00 L 332.00,127.00 L 331.00,126.00 L 331.00,125.00 L 331.00,125.00 L 330.00,124.00 L 330.00,123.00 L 330.00,123.00 L 329.00,122.00 L 329.00,121.00 L 329.00,120.00 L 329.00,120.00 L 328.00,119.00 L 328.00,118.00 L 328.00,117.00 L 328.00,116.00 L 328.00,115.00 L 328.00,114.00 L 328.00,114.00 L 327.00,114.00 L 326.00,114.00 L 325.00,114.00 L 324.00,114.00 L 323.00,114.00 L 322.00,114.00 L 321.00,114.00 L 320.00,114.00 L 319.00,114.00 L 319.00,114.00 L 318.00,115.00 L 317.00,115.00 L 316.00,115.00 L 315.00,115.00 L 314.00,115.00 L 313.00,115.00 L 313.00,115.00 L 312.00,116.00 L 311.00,116.00 L 310.00,116.00 L 309.00,116.00 L 309.00,116.00 L 308.00,117.00 L 307.00,117.00 L 306.00,117.00 L 306.00,117.00 L 305.00,118.00 L 304.00,118.00 L 304.00,118.00 L 303.00,119.00 L 302.00,119.00 L 301.00,119.00 L 301.00,119.00 L 300.00,120.00 L 299.00,120.00 L 299.00,120.00 L 298.00,121.00 L 297.00,121.00 L 297.00,121.00 L 296.00,122.00 L 295.00,122.00 L 295.00,122.00 L 294.00,123.00 L 293.00,123.00 L 293.00,123.00 L 292.00,124.00 L 292.00,124.00 L 291.00,125.00 L 290.00,125.00 L 290.00,125.00 L 289.00,126.00 L 288.00,126.00 L 288.00,126.00 L 287.00,127.00 L 287.00,127.00 L 286.00,128.00 L 285.00,128.00 L 285.00,128.00 L 284.00,129.00 L 284.00,129.00 L 283.00,130.00 L 282.00,130.00 L 282.00,130.00 L 281.00,131.00 L 281.00,131.00 L 280.00,132.00 L 280.00,132.00 L 279.00,133.00 L 278.00,133.00 L 278.00,133.00 L 277.00,134.00 L 277.00,134.00 L 276.00,135.00 L 276.00,135.00 L 275.00,136.00 L 275.00,136.00 L 274.00,137.00 L 274.00,137.00 L 273.00,138.00 L 272.00,138.00 L 272.00,138.00 L 271.00,139.00 L 271.00,139.00 L 270.00,140.00 L 270.00,140.00 L 269.00,141.00 L 269.00,141.00 L 268.00,142.00 L 268.00,142.00 L 267.00,143.00 L 267.00,143.00 L 266.00,144.00 L 266.00,144.00 L 265.00,145.00 L 265.00,145.00 L 264.00,146.00 L 264.00,146.00 L 263.00,147.00 L 263.00,147.00 L 262.00,148.00 L 262.00,148.00 L 261.00,149.00 L 261.00,149.00 L 260.00,150.00 L 260.00,150.00 L 259.00,151.00 L 259.00,151.00 L 259.00,152.00 L 258.00,153.00 L 258.00,153.00 L 257.00,154.00 L 257.00,154.00 L 256.00,155.00 L 256.00,155.00 L 255.00,156.00 L 255.00,156.00 L 254.00,157.00 L 254.00,157.00 L 254.00,158.00 L 253.00,159.00 L 253.00,159.00 L 252.00,160.00 L 252.00,160.00 L 252.00,161.00 L 251.00,162.00 L 251.00,162.00 L 250.00,163.00 L 250.00,163.00 L 250.00,164.00 L 249.00,165.00 L 249.00,165.00 L 248.00,166.00 L 248.00,166.00 L 247.00,167.00 L 247.00,167.00 L 247.00,168.00 L 246.00,169.00 L 246.00,169.00 L 245.00,170.00 L 245.00,170.00 L 245.00,171.00 L 244.00,172.00 L 243.00,172.00 L 243.00,172.00 L 242.00,173.00 L 241.00,173.00 L 240.00,173.00 L 239.00,173.00 L 238.00,172.00 L 238.00,172.00 L 237.00,172.00 L 236.00,171.00 L 236.00,171.00 L 235.00,170.00 L 235.00,169.00 L 235.00,169.00 L 234.00,168.00 L 234.00,167.00 L 234.00,166.00 L 234.00,165.00 L 234.00,164.00 L 234.00,163.00 L 234.00,162.00 L 234.00,161.00 L 234.00,160.00 L 234.00,159.00 L 234.00,158.00 L 234.00,157.00 L 234.00,156.00 L 234.00,155.00 L 234.00,154.00 L 234.00,153.00 L 234.00,152.00 L 234.00,151.00 L 234.00,151.00 L 233.00,150.00 L 233.00,149.00 L 233.00,148.00 L 233.00,147.00 L 233.00,146.00 L 233.00,145.00 L 233.00,144.00 L 233.00,143.00 L 233.00,143.00 L 232.00,142.00 L 232.00,141.00 L 232.00,140.00 L 232.00,140.00 L 231.00,139.00 L 231.00,138.00 L 231.00,137.00 L 231.00,137.00 L 230.00,136.00 L 230.00,135.00 L 230.00,134.00 L 230.00,134.00 L 229.00,133.00 L 229.00,133.00 L 228.00,132.00 L 228.00,131.00 L 228.00,131.00 L 227.00,130.00 L 227.00,130.00 L 226.00,129.00 L 226.00,129.00 L 225.00,128.00 L 225.00,128.00 L 224.00,127.00 L 224.00,127.00 L 223.00,126.00 L 223.00,126.00 L 222.00,126.00 L 221.00,125.00 L 221.00,125.00 L 220.00,124.00 L 220.00,124.00 L 219.00,124.00 L 218.00,123.00 L 218.00,123.00 L 217.00,122.00 L 217.00,121.00 L 217.00,120.00 L 218.00,119.00 L 218.00,119.00 L 218.00,118.00 L 219.00,117.00 L 219.00,117.00 L 219.00,116.00 L 219.00,116.00 L 218.00,115.00 L 218.00,114.00 L 218.00,113.00 L 218.00,112.00 L 218.00,111.00 L 218.00,110.00 L 218.00,110.00 L 217.00,109.00 L 217.00,108.00 L 217.00,108.00 L 216.00,107.00 L 216.00,106.00 L 216.00,106.00 L 215.00,105.00 L 215.00,104.00 L 215.00,104.00 L 214.00,103.00 L 214.00,102.00 L 214.00,102.00 L 213.00,101.00 L 213.00,101.00 L 212.00,100.00 L 212.00,99.00 L 212.00,99.00 L 211.00,98.00 L 211.00,98.00 L 210.00,97.00 L 210.00,97.00 L 209.00,96.00 L 209.00,96.00 L 208.00,95.00 L 208.00,95.00 L 207.00,94.00 L 207.00,94.00 L 206.00,93.00 L 206.00,93.00 L 205.00,92.00 L 205.00,92.00 L 204.00,91.00 L 204.00,91.00 L 203.00,90.00 L 203.00,90.00 L 202.00,90.00 L 201.00,89.00 L 201.00,89.00 L 200.00,88.00 L 200.00,88.00 L 199.00,88.00 L 198.00,87.00 L 198.00,87.00 L 197.00,87.00 L 196.00,87.00 L 195.00,87.00 L 194.00,86.00 L 194.00,86.00 L 193.00,86.00 L 192.00,85.00 L 192.00,85.00 L 191.00,85.00 L 190.00,84.00 L 190.00,84.00 L 189.00,84.00 L 188.00,84.00 L 187.00,84.00 L 186.00,84.00 L 185.00,84.00 L 184.00,84.00 L 183.00,84.00 L 182.00,84.00 L 181.00,83.00 L 181.00,83.00 L 180.00,83.00 L 179.00,83.00 L 178.00,83.00 L 177.00,83.00 L 176.00,83.00 L 175.00,83.00 L 174.00,83.00 L 174.00,83.00 L 173.00,84.00 L 172.00,84.00 L 171.00,84.00 L 170.00,84.00 L 169.00,84.00 L 168.00,84.00 L 167.00,84.00 L 166.00,84.00 L 166.00,84.00 L 165.00,85.00 L 164.00,85.00 L 163.00,85.00 L 163.00,85.00 L 162.00,86.00 L 161.00,86.00 L 161.00,86.00 L 160.00,87.00 L 159.00,87.00 L 158.00,87.00 L 157.00,87.00 L 157.00,87.00 L 156.00,88.00 L 156.00,88.00 L 155.00,89.00 L 154.00,89.00 L 154.00,89.00 L 153.00,90.00 L 152.00,90.00 L 151.00,90.00 L 151.00,90.00 L 151.00,91.00 L 150.00,92.00 L 149.00,92.00 L 149.00,92.00 L 148.00,93.00 L 148.00,93.00 L 147.00,94.00 L 146.00,94.00 L 146.00,94.00 L 145.00,95.00 L 145.00,95.00 L 144.00,96.00 L 144.00,96.00 L 143.00,97.00 L 142.00,97.00 L 142.00,97.00 L 142.00,98.00 L 141.00,99.00 L 140.00,99.00 L 140.00,99.00 L 139.00,100.00 L 139.00,100.00 L 139.00,101.00 L 138.00,102.00 L 138.00,102.00 L 137.00,103.00 L 137.00,103.00 L 136.00,104.00 L 136.00,104.00 L 135.00,105.00 L 135.00,105.00 L 135.00,106.00 L 134.00,107.00 L 134.00,107.00 L 133.00,108.00 L 133.00,108.00 L 133.00,109.00 L 132.00,110.00 L 132.00,110.00 L 131.00,111.00 L 131.00,111.00 L 131.00,112.00 L 130.00,113.00 L 130.00,113.00 L 130.00,114.00 L 130.00,115.00 L 129.00,116.00 L 129.00,116.00 L 129.00,117.00 L 128.00,118.00 L 128.00,118.00 L 128.00,119.00 L 128.00,120.00 L 127.00,121.00 L 127.00,121.00 L 127.00,122.00 L 127.00,123.00 L 127.00,124.00 L 127.00,125.00 L 127.00,126.00 L 127.00,127.00 L 127.00,128.00 L 127.00,129.00 L 127.00,130.00 L 127.00,130.00 L 128.00,131.00 L 128.00,131.00 L 129.00,132.00 L 129.00,132.00 L 130.00,133.00 L 130.00,133.00 L 131.00,134.00 L 131.00,134.00 L 132.00,135.00 L 132.00,136.00 L 132.00,137.00 L 132.00,138.00 L 132.00,139.00 L 131.00,140.00 L 131.00,140.00 L 131.00,141.00 L 130.00,142.00 L 130.00,142.00 L 130.00,143.00 L 129.00,144.00 L 129.00,144.00 L 129.00,145.00 L 129.00,146.00 L 128.00,147.00 L 128.00,147.00 L 128.00,148.00 L 128.00,149.00 L 128.00,150.00 L 128.00,151.00 L 128.00,152.00 L 128.00,153.00 L 128.00,154.00 L 128.00,155.00 L 128.00,156.00 L 128.00,157.00 L 128.00,158.00 L 128.00,159.00 L 128.00,160.00 L 128.00,161.00 L 128.00,162.00 L 128.00,163.00 L 128.00,164.00 L 128.00,164.00 L 129.00,165.00 L 129.00,166.00 L 129.00,167.00 L 129.00,168.00 L 129.00,168.00 L 130.00,169.00 L 130.00,170.00 L 130.00,170.00 L 131.00,171.00 L 131.00,172.00 L 131.00,172.00 L 132.00,173.00 L 132.00,174.00 L 132.00,174.00 L 133.00,175.00 L 133.00,176.00 L 133.00,176.00 L 134.00,177.00 L 134.00,178.00 L 134.00,178.00 L 135.00,179.00 L 135.00,180.00 L 135.00,180.00 L 136.00,181.00 L 136.00,181.00 L 137.00,182.00 L 137.00,183.00 L 137.00,183.00 L 138.00,184.00 L 138.00,185.00 L 138.00,186.00 L 137.00,187.00 L 137.00,187.00 L 137.00,188.00 L 136.00,189.00 L 135.00,189.00 L 135.00,189.00 L 134.00,190.00 L 133.00,190.00 L 132.00,190.00 L 131.00,190.00 L 130.00,190.00 L 129.00,189.00 L 129.00,189.00 L 128.00,189.00 L 127.00,189.00 L 126.00,189.00 L 125.00,188.00 L 125.00,188.00 L 124.00,188.00 L 123.00,188.00 L 122.00,187.00 L 122.00,187.00 L 121.00,187.00 L 120.00,187.00 L 119.00,187.00 L 118.00,187.00 L 117.00,187.00 L 116.00,186.00 L 116.00,186.00 L 115.00,186.00 L 114.00,186.00 L 113.00,186.00 L 112.00,186.00 L 111.00,186.00 L 110.00,186.00 L 109.00,186.00 L 108.00,186.00 L 107.00,186.00 L 106.00,186.00 L 105.00,186.00 L 104.00,186.00 L 103.00,186.00 L 102.00,186.00 L 102.00,186.00 L 101.00,187.00 L 100.00,187.00 L 99.00,187.00 L 98.00,187.00 L 97.00,187.00 L 96.00,187.00 L 95.00,187.00 L 95.00,187.00 L 94.00,188.00 L 93.00,188.00 L 92.00,188.00 L 92.00,188.00 L 91.00,189.00 L 90.00,189.00 L 89.00,189.00 L 88.00,189.00 L 88.00,189.00 L 87.00,190.00 L 86.00,190.00 L 85.00,190.00 L 85.00,190.00 L 84.00,191.00 L 83.00,191.00 L 83.00,191.00 L 82.00,192.00 L 81.00,192.00 L 81.00,192.00 L 80.00,193.00 L 79.00,193.00 L 78.00,193.00 L 78.00,193.00 L 77.00,194.00 L 77.00,194.00 L 76.00,195.00 L 75.00,195.00 L 75.00,195.00 L 74.00,196.00 L 73.00,196.00 L 73.00,196.00 L 72.00,197.00 L 71.00,197.00 L 71.00,197.00 L 70.00,198.00 L 70.00,198.00 L 69.00,199.00 L 68.00,199.00 L 68.00,199.00 L 67.00,200.00 L 67.00,200.00 L 66.00,201.00 L 66.00,201.00 L 65.00,202.00 L 64.00,202.00 L 64.00,202.00 L 63.00,203.00 L 63.00,203.00 L 62.00,204.00 L 62.00,204.00 L 61.00,205.00 L 61.00,205.00 L 60.00,206.00 L 60.00,206.00 L 59.00,207.00 L 59.00,207.00 L 58.00,208.00 L 58.00,208.00 L 57.00,209.00 L 57.00,209.00 L 56.00,210.00 L 56.00,210.00 L 55.00,211.00 L 55.00,211.00 L 55.00,212.00 L 54.00,213.00 L 54.00,213.00 L 53.00,214.00 L 53.00,214.00 L 53.00,215.00 L 52.00,216.00 L 52.00,216.00 L 51.00,217.00 L 51.00,217.00 L 51.00,218.00 L 50.00,219.00 L 50.00,219.00 L 49.00,220.00 L 49.00,220.00 L 49.00,221.00 L 49.00,222.00 L 48.00,223.00 L 48.00,223.00 L 48.00,224.00 L 47.00,225.00 L 47.00,225.00 L 47.00,226.00 L 47.00,227.00 L 46.00,228.00 L 46.00,228.00 L 46.00,229.00 L 46.00,230.00 L 45.00,231.00 L 45.00,231.00 L 45.00,232.00 L 45.00,233.00 L 45.00,234.00 L 45.00,235.00 L 44.00,236.00 L 44.00,236.00 L 44.00,237.00 L 44.00,238.00 L 44.00,239.00 L 44.00,240.00 L 44.00,241.00 L 44.00,242.00 L 44.00,243.00 L 44.00,244.00 L 44.00,245.00 L 44.00,246.00 L 44.00,247.00 L 44.00,248.00 L 44.00,249.00 L 44.00,250.00 L 44.00,251.00 L 44.00,251.00 L 45.00,252.00 L 45.00,253.00 L 45.00,254.00 L 45.00,255.00 L 45.00,256.00 L 45.00,257.00 L 45.00,257.00 L 46.00,258.00 L 46.00,259.00 L 46.00,260.00 L 46.00,261.00 L 46.00,262.00 L 46.00,262.00 L 47.00,263.00 L 47.00,264.00 L 47.00,264.00 L 48.00,265.00 L 48.00,266.00 L 48.00,267.00 L 48.00,267.00 L 49.00,268.00 L 49.00,269.00 L 49.00,270.00 L 49.00,270.00 L 50.00,271.00 L 50.00,272.00 L 50.00,272.00 L 51.00,273.00 L 51.00,274.00 L 51.00,274.00 L 52.00,275.00 L 52.00,276.00 L 52.00,276.00 L 53.00,277.00 L 53.00,278.00 L 53.00,278.00 L 54.00,279.00 L 54.00,279.00 L 55.00,280.00 L 55.00,281.00 L 55.00,281.00 L 56.00,282.00 L 56.00,283.00 L 56.00,283.00 L 57.00,284.00 L 57.00,284.00 L 58.00,285.00 L 58.00,286.00 L 58.00,286.00 L 59.00,287.00 L 59.00,287.00 L 60.00,288.00 L 60.00,288.00 L 61.00,289.00 L 61.00,290.00 L 61.00,290.00 L 62.00,291.00 L 62.00,291.00 L 63.00,292.00 L 63.00,292.00 L 64.00,293.00 L 64.00,293.00 L 65.00,294.00 L 65.00,294.00 L 66.00,295.00 L 66.00,295.00 L 67.00,296.00 L 67.00,296.00 L 68.00,297.00 L 68.00,297.00 L 69.00,298.00 L 69.00,298.00 L 70.00,299.00 L 70.00,299.00 L 71.00,300.00 L 71.00,300.00 L 72.00,300.00 L 73.00,301.00 L 73.00,301.00 L 74.00,302.00 L 74.00,302.00 L 75.00,303.00 L 75.00,303.00 L 76.00,303.00 L 77.00,304.00 L 77.00,304.00 L 78.00,305.00 L 78.00,305.00 L 79.00,305.00 L 80.00,306.00 L 80.00,306.00 L 81.00,306.00 L 82.00,307.00 L 82.00,307.00 L 83.00,307.00 L 84.00,308.00 L 84.00,308.00 L 85.00,308.00 L 86.00,309.00 L 86.00,309.00 L 87.00,309.00 L 88.00,309.00 L 89.00,310.00 L 89.00,310.00 L 90.00,310.00 L 91.00,311.00 L 91.00,311.00 L 92.00,311.00 L 93.00,311.00 L 94.00,311.00 L 95.00,312.00 L 95.00,312.00 L 96.00,312.00 L 97.00,312.00 L 98.00,312.00 L 99.00,312.00 L 100.00,313.00 L 100.00,313.00 L 101.00,313.00 L 102.00,313.00 L 103.00,313.00 L 104.00,313.00 L 105.00,313.00 L 106.00,313.00 L 107.00,313.00 L 108.00,313.00 L 109.00,313.00 L 110.00,313.00 L 111.00,313.00 L 111.00,313.00 L 112.00,312.00 L 113.00,312.00 L 114.00,312.00 L 115.00,312.00 L 115.00,312.00 L 116.00,311.00 L 117.00,311.00 L 117.00,311.00 L 118.00,310.00 L 118.00,310.00 L 119.00,309.00 L 120.00,309.00 L 121.00,309.00 L 122.00,309.00 L 123.00,309.00 L 124.00,309.00 L 125.00,309.00 L 126.00,310.00 L 126.00,310.00 L 127.00,311.00 L 127.00,311.00 L 128.00,312.00 L 128.00,313.00 L 128.00,313.00 L 129.00,314.00 L 129.00,315.00 L 129.00,316.00 L 129.00,317.00 L 129.00,318.00 L 128.00,319.00 L 128.00,319.00 L 128.00,320.00 L 128.00,321.00 L 128.00,322.00 L 128.00,323.00 L 127.00,324.00 L 127.00,324.00 L 127.00,325.00 L 127.00,326.00 L 127.00,327.00 L 127.00,328.00 L 126.00,329.00 L 126.00,329.00 L 126.00,330.00 L 126.00,331.00 L 126.00,332.00 L 126.00,333.00 L 126.00,334.00 L 126.00,335.00 L 126.00,336.00 L 125.00,337.00 L 125.00,337.00 L 125.00,338.00 L 125.00,339.00 L 125.00,340.00 L 125.00,341.00 L 125.00,342.00 L 125.00,343.00 L 125.00,344.00 L 125.00,345.00 L 125.00,346.00 L 124.00,347.00 L 124.00,347.00 L 124.00,348.00 L 124.00,349.00 L 124.00,350.00 L 124.00,351.00 L 124.00,352.00 L 124.00,353.00 L 124.00,354.00 L 124.00,355.00 L 124.00,356.00 L 124.00,356.00 L 125.00,357.00 L 125.00,358.00 L 125.00,359.00 L 125.00,360.00 L 125.00,361.00 L 125.00,362.00 L 125.00,363.00 L 125.00,364.00 L 125.00,364.00 L 126.00,365.00 L 126.00,366.00 L 126.00,367.00 L 126.00,368.00 L 126.00,369.00 L 126.00,369.00 L 127.00,370.00 L 127.00,371.00 L 127.00,372.00 L 127.00,372.00 L 128.00,373.00 L 128.00,374.00 L 128.00,375.00 L 128.00,375.00 L 129.00,376.00 L 129.00,377.00 L 129.00,377.00 L 130.00,378.00 L 130.00,379.00 L 130.00,379.00 L 131.00,380.00 L 131.00,381.00 L 131.00,381.00 L 132.00,382.00 L 132.00,383.00 L 132.00,383.00 L 133.00,384.00 L 133.00,384.00 L 134.00,385.00 L 134.00,385.00 L 135.00,386.00 L 135.00,386.00 L 136.00,387.00 L 136.00,388.00 L 136.00,388.00 L 137.00,389.00 L 137.00,389.00 L 138.00,390.00 L 138.00,390.00 L 139.00,390.00 L 140.00,391.00 L 140.00,391.00 L 141.00,392.00 L 141.00,392.00 L 142.00,393.00 L 142.00,393.00 L 143.00,393.00 L 144.00,394.00 L 144.00,394.00 L 145.00,395.00 L 145.00,395.00 L 146.00,395.00 L 147.00,396.00 L 147.00,396.00 L 148.00,396.00 L 149.00,397.00 L 149.00,397.00 L 150.00,397.00 L 151.00,398.00 L 151.00,398.00 L 152.00,398.00 L 153.00,398.00 L 154.00,399.00 L 154.00,399.00 L 155.00,399.00 L 156.00,399.00 L 157.00,400.00 L 157.00,400.00 L 158.00,400.00 L 159.00,400.00 L 160.00,401.00 L 160.00,401.00 L 161.00,401.00 L 162.00,401.00 L 163.00,401.00 L 164.00,401.00 L 165.00,401.00 L 166.00,402.00 L 166.00,402.00 L 167.00,402.00 L 168.00,402.00 L 169.00,402.00 L 170.00,402.00 L 171.00,402.00 L 172.00,402.00 L 173.00,402.00 L 174.00,402.00 L 175.00,402.00 L 176.00,402.00 L 177.00,402.00 L 178.00,402.00 L 179.00,402.00 L 180.00,402.00 L 181.00,402.00 L 182.00,402.00 L 183.00,402.00 L 184.00,402.00 L 185.00,402.00 L 185.00,402.00 Z" fill="black" stroke="none" /><path d="M 342.00,86.00 L 342.00,86.00 L 342.00,86.00 L 342.00,86.00 L 342.00,86.00 Z" fill="black" stroke="none" /><path d="M 386.00,104.00 L 386.00,104.00 L 386.00,104.00 L 386.00,104.00 L 386.00,104.00 Z" fill="black" stroke="none" /><path d="M 106.00,174.00 L 106.00,174.00 L 106.00,174.00 L 106.00,174.00 L 106.00,174.00 Z" fill="black" stroke="none" /><path d="M 61.00,190.00 L 61.00,190.00 L 61.00,190.00 L 61.00,190.00 L 61.00,190.00 Z" fill="black" stroke="none" /><path d="M 33.00,232.00 L 33.00,232.00 L 33.00,232.00 L 33.00,232.00 L 33.00,232.00 Z" fill="black" stroke="none" /><path d="M 37.00,271.00 L 37.00,271.00 L 37.00,271.00 L 37.00,271.00 L 37.00,271.00 Z" fill="black" stroke="none" /><path d="M 52.00,297.00 L 52.00,297.00 L 52.00,297.00 L 52.00,297.00 L 52.00,297.00 Z" fill="black" stroke="none" /><path d="M 445.00,300.00 L 445.00,300.00 L 445.00,300.00 L 445.00,300.00 L 445.00,300.00 Z" fill="black" stroke="none" /><path d="M 64.00,309.00 L 64.00,309.00 L 64.00,309.00 L 64.00,309.00 L 64.00,309.00 Z" fill="black" stroke="none" /><path d="M 418.00,321.00 L 418.00,321.00 L 418.00,321.00 L 418.00,321.00 L 418.00,321.00 Z" fill="black" stroke="none" /><path d="M 251.00,337.00 L 251.00,337.00 L 251.00,337.00 L 251.00,337.00 L 251.00,337.00 Z" fill="black" stroke="none" /><path d="M 329.00,380.00 L 329.00,380.00 L 329.00,380.00 L 329.00,380.00 L 329.00,380.00 Z" fill="black" stroke="none" /><path d="M 343.00,380.00 L 343.00,380.00 L 343.00,380.00 L 343.00,380.00 L 343.00,380.00 Z" fill="black" stroke="none" /><path d="M 201.00,410.00 L 201.00,410.00 L 201.00,410.00 L 201.00,410.00 L 201.00,410.00 Z" fill="black" stroke="none" /><path d="M 162.00,413.00 L 162.00,413.00 L 162.00,413.00 L 162.00,413.00 L 162.00,413.00 Z" fill="black" stroke="none" /></svg>